<svg width="44" height="24" viewBox="0 0 44 24" fill="none" xmlns="http://www.w3.org/2000/svg">
<rect width="44" height="24" rx="12" fill="#FFE6B5"/>
<circle cx="12" cy="12" r="10" fill="#FFAA04"/>
<mask id="mask0_1702_38452" style="mask-type:alpha" maskUnits="userSpaceOnUse" x="4" y="4" width="16" height="16">
<rect x="4" y="4" width="16" height="16" fill="#D9D9D9"/>
</mask>
<g mask="url(#mask0_1702_38452)">
<path d="M12 6.66669C11.8111 6.66669 11.6529 6.60269 11.5254 6.47469C11.3974 6.34713 11.3334 6.18891 11.3334 6.00002V5.33335C11.3334 5.14446 11.3974 4.98602 11.5254 4.85802C11.6529 4.73046 11.8111 4.66669 12 4.66669C12.1889 4.66669 12.3474 4.73046 12.4754 4.85802C12.6029 4.98602 12.6667 5.14446 12.6667 5.33335V6.00002C12.6667 6.18891 12.6029 6.34713 12.4754 6.47469C12.3474 6.60269 12.1889 6.66669 12 6.66669ZM12 19.3334C11.8111 19.3334 11.6529 19.2694 11.5254 19.1414C11.3974 19.0138 11.3334 18.8556 11.3334 18.6667V18C11.3334 17.8111 11.3974 17.6529 11.5254 17.5254C11.6529 17.3974 11.8111 17.3334 12 17.3334C12.1889 17.3334 12.3474 17.3974 12.4754 17.5254C12.6029 17.6529 12.6667 17.8111 12.6667 18V18.6667C12.6667 18.8556 12.6029 19.0138 12.4754 19.1414C12.3474 19.2694 12.1889 19.3334 12 19.3334ZM18 12.6667C17.8111 12.6667 17.6529 12.6027 17.5254 12.4747C17.3974 12.3471 17.3334 12.1889 17.3334 12C17.3334 11.8111 17.3974 11.6527 17.5254 11.5247C17.6529 11.3971 17.8111 11.3334 18 11.3334H18.6667C18.8556 11.3334 19.0138 11.3971 19.1414 11.5247C19.2694 11.6527 19.3334 11.8111 19.3334 12C19.3334 12.1889 19.2694 12.3471 19.1414 12.4747C19.0138 12.6027 18.8556 12.6667 18.6667 12.6667H18ZM5.33335 12.6667C5.14446 12.6667 4.98624 12.6027 4.85869 12.4747C4.73069 12.3471 4.66669 12.1889 4.66669 12C4.66669 11.8111 4.73069 11.6527 4.85869 11.5247C4.98624 11.3971 5.14446 11.3334 5.33335 11.3334H6.00002C6.18891 11.3334 6.34735 11.3971 6.47535 11.5247C6.60291 11.6527 6.66669 11.8111 6.66669 12C6.66669 12.1889 6.60291 12.3471 6.47535 12.4747C6.34735 12.6027 6.18891 12.6667 6.00002 12.6667H5.33335ZM16 8.00002C15.8778 7.8778 15.8167 7.72491 15.8167 7.54135C15.8167 7.35824 15.8778 7.20002 16 7.06669L16.2334 6.81669C16.3556 6.68335 16.5111 6.61669 16.7 6.61669C16.8889 6.61669 17.05 6.68335 17.1834 6.81669C17.3167 6.95002 17.3834 7.11113 17.3834 7.30002C17.3834 7.48891 17.3167 7.65002 17.1834 7.78335L16.9334 8.01669C16.8 8.13891 16.6445 8.20002 16.4667 8.20002C16.2889 8.20002 16.1334 8.13335 16 8.00002ZM6.81669 17.1834C6.68335 17.05 6.61669 16.8889 6.61669 16.7C6.61669 16.5111 6.68335 16.35 6.81669 16.2167L7.06669 15.9834C7.20002 15.8611 7.35558 15.8 7.53335 15.8C7.71113 15.8 7.86669 15.8667 8.00002 16C8.12224 16.1222 8.18624 16.2778 8.19202 16.4667C8.19735 16.6556 8.13335 16.8111 8.00002 16.9334L7.76669 17.1834C7.64446 17.3167 7.48891 17.3834 7.30002 17.3834C7.11113 17.3834 6.95002 17.3167 6.81669 17.1834ZM16.2167 17.1834L15.9834 16.9334C15.8611 16.8 15.8 16.6445 15.8 16.4667C15.8 16.2889 15.8667 16.1334 16 16C16.1222 15.8778 16.2778 15.8138 16.4667 15.808C16.6556 15.8027 16.8111 15.8667 16.9334 16L17.1834 16.2334C17.3167 16.3556 17.3834 16.5111 17.3834 16.7C17.3834 16.8889 17.3167 17.05 17.1834 17.1834C17.05 17.3167 16.8889 17.3834 16.7 17.3834C16.5111 17.3834 16.35 17.3167 16.2167 17.1834ZM7.06669 8.00002L6.81669 7.76669C6.68335 7.64446 6.61669 7.48891 6.61669 7.30002C6.61669 7.11113 6.68335 6.95002 6.81669 6.81669C6.95002 6.68335 7.11113 6.61669 7.30002 6.61669C7.48891 6.61669 7.65002 6.68335 7.78335 6.81669L8.01669 7.06669C8.13891 7.20002 8.20002 7.35558 8.20002 7.53335C8.20002 7.71113 8.13335 7.86669 8.00002 8.00002C7.8778 8.12224 7.72491 8.18335 7.54135 8.18335C7.35824 8.18335 7.20002 8.12224 7.06669 8.00002ZM12 16C10.8889 16 9.94446 15.6111 9.16669 14.8334C8.38891 14.0556 8.00002 13.1111 8.00002 12C8.00002 10.8889 8.38891 9.94446 9.16669 9.16669C9.94446 8.38891 10.8889 8.00002 12 8.00002C13.1111 8.00002 14.0556 8.38891 14.8334 9.16669C15.6111 9.94446 16 10.8889 16 12C16 13.1111 15.6111 14.0556 14.8334 14.8334C14.0556 15.6111 13.1111 16 12 16Z" fill="white"/>
</g>
<mask id="mask1_1702_38452" style="mask-type:alpha" maskUnits="userSpaceOnUse" x="24" y="4" width="16" height="16">
<rect x="24" y="4" width="16" height="16" fill="#D9D9D9"/>
</mask>
<g mask="url(#mask1_1702_38452)">
<path d="M32 18C30.3222 18 28.9027 17.4193 27.7413 16.258C26.5804 15.0971 26 13.6778 26 12C26 10.4667 26.5 9.13602 27.5 8.00802C28.5 6.88046 29.7778 6.22224 31.3333 6.03335C31.6111 6.00002 31.8278 6.10002 31.9833 6.33335C32.1389 6.56668 32.1333 6.81113 31.9667 7.06668C31.7778 7.35557 31.636 7.66113 31.5413 7.98335C31.4471 8.30557 31.4 8.64446 31.4 9.00002C31.4 10 31.75 10.85 32.45 11.55C33.15 12.25 34 12.6 35 12.6C35.3444 12.6 35.6862 12.55 36.0253 12.45C36.364 12.35 36.6667 12.2111 36.9333 12.0333C37.1667 11.8778 37.4056 11.8693 37.65 12.008C37.8944 12.1471 38 12.3667 37.9667 12.6667C37.8111 14.2 37.1584 15.4722 36.0087 16.4834C34.8584 17.4945 33.5222 18 32 18Z" fill="white"/>
</g>
</svg>
